

<!-- <?xml version="1.0" encoding="utf-8"?> -->
<!-- Generator: Adobe Illustrator 23.0.3, SVG Export Plug-In . SVG Version: 6.00 Build 0)  -->
<svg version="1.1" id="Layer_1" xmlns="http://www.w3.org/2000/svg" xmlns:xlink="http://www.w3.org/1999/xlink" x="0px" y="0px"
	 width="100%" viewBox="0 0 360 360" enable-background="new 0 0 360 360" xml:space="preserve">
<path fill="#FFFFFF" opacity="1.000000" stroke="none" 
	d="
M163.000000,361.000000 
	C108.685349,361.000000 54.870697,361.000000 1.028022,361.000000 
	C1.028022,241.060333 1.028022,121.120651 1.028022,1.090485 
	C120.897972,1.090485 240.796036,1.090485 360.847046,1.090485 
	C360.847046,120.999847 360.847046,240.999908 360.847046,361.000000 
	C295.120667,361.000000 229.310333,361.000000 163.000000,361.000000 
M305.851715,147.367737 
	C305.512482,147.334534 305.173218,147.301315 304.059418,147.298218 
	C301.735168,147.481812 299.410950,147.665421 296.141632,147.711807 
	C269.430054,147.790771 242.718460,147.869751 215.432327,147.555435 
	C214.431870,145.906036 213.142578,144.365082 212.476166,142.590256 
	C206.577911,126.881790 200.811768,111.123772 194.962662,95.396736 
	C190.481903,83.348877 185.937576,71.324654 181.037155,58.265648 
	C180.251831,60.230164 179.887756,61.088066 179.563141,61.960644 
	C169.656128,88.590134 159.785141,115.233147 149.790146,141.829559 
	C148.963577,144.029068 147.300766,145.914307 145.095718,147.785919 
	C118.362587,147.802338 91.629456,147.818771 64.153809,147.609619 
	C61.517216,147.609619 58.880623,147.609619 55.316574,147.609619 
	C57.462086,149.641113 58.738060,150.946762 60.113693,152.137238 
	C81.514832,170.657516 102.891960,189.206009 124.391350,207.611649 
	C126.803772,209.676895 127.274025,211.375854 126.378792,214.425079 
	C120.567505,234.218719 114.992714,254.081909 109.364258,273.929047 
	C106.620979,283.602478 103.928986,293.290466 100.979912,303.805725 
	C103.720688,302.035858 105.677376,300.789062 107.617439,299.516937 
	C130.860626,284.276154 154.125076,269.067505 177.308655,253.736526 
	C179.825439,252.072220 181.602188,251.645020 184.371658,253.493149 
	C205.965164,267.903076 227.681992,282.128448 249.381165,296.379700 
	C252.982758,298.745117 256.683899,300.958954 260.982025,303.644592 
	C252.348816,273.217102 244.039978,243.769974 235.576233,214.367432 
	C234.774307,211.581558 234.979782,209.834915 237.289612,207.874054 
	C248.965729,197.962036 260.530426,187.917542 272.064453,177.839722 
	C283.447510,167.893814 294.747284,157.852554 305.851715,147.367737 
z"/>
<path fill="#FBDC2B" opacity="1.000000" stroke="none" 
	d="
M146.026505,147.945572 
	C147.300766,145.914307 148.963577,144.029068 149.790146,141.829559 
	C159.785141,115.233147 169.656128,88.590134 179.563141,61.960644 
	C179.887756,61.088066 180.251831,60.230164 181.037155,58.265648 
	C185.937576,71.324654 190.481903,83.348877 194.962662,95.396736 
	C200.811768,111.123772 206.577911,126.881790 212.476166,142.590256 
	C213.142578,144.365082 214.431870,145.906036 216.002335,148.061462 
	C217.214417,148.706985 217.856384,148.967850 218.498596,148.968491 
	C243.491165,148.993225 268.483795,149.010208 293.476227,148.949524 
	C294.680603,148.946579 295.883240,148.232117 297.086700,147.849030 
	C299.410950,147.665421 301.735168,147.481812 304.618195,147.450684 
	C305.443573,147.815628 305.745789,147.898956 306.083618,147.853149 
	C294.747284,157.852554 283.447510,167.893814 272.064453,177.839722 
	C260.530426,187.917542 248.965729,197.962036 237.289612,207.874054 
	C234.979782,209.834915 234.774307,211.581558 235.576233,214.367432 
	C244.039978,243.769974 252.348816,273.217102 260.982025,303.644592 
	C256.683899,300.958954 252.982758,298.745117 249.381165,296.379700 
	C227.681992,282.128448 205.965164,267.903076 184.371658,253.493149 
	C181.602188,251.645020 179.825439,252.072220 177.308655,253.736526 
	C154.125076,269.067505 130.860626,284.276154 107.617439,299.516937 
	C105.677376,300.789062 103.720688,302.035858 100.979912,303.805725 
	C103.928986,293.290466 106.620979,283.602478 109.364258,273.929047 
	C114.992714,254.081909 120.567505,234.218719 126.378792,214.425079 
	C127.274025,211.375854 126.803772,209.676895 124.391350,207.611649 
	C102.891960,189.206009 81.514832,170.657516 60.113693,152.137238 
	C58.738060,150.946762 57.462086,149.641113 55.316574,147.609619 
	C58.880623,147.609619 61.517216,147.609619 64.810562,148.049423 
	C66.268600,148.657684 67.069733,148.972534 67.871193,148.973358 
	C92.703209,148.998978 117.535301,149.008743 142.367203,148.949005 
	C143.587769,148.946060 144.806778,148.294891 146.026505,147.945572 
M62.410816,149.481186 
	C62.410816,149.481186 62.526451,149.411819 62.410816,149.481186 
M299.404205,149.481232 
	C299.404205,149.481232 299.520691,149.410568 299.404205,149.481232 
z"/>
<path fill="#FDD814" opacity="1.000000" stroke="none" 
	d="
M145.561111,147.865753 
	C144.806778,148.294891 143.587769,148.946060 142.367203,148.949005 
	C117.535301,149.008743 92.703209,148.998978 67.871193,148.973358 
	C67.069733,148.972534 66.268600,148.657684 65.181816,148.162201 
	C91.629456,147.818771 118.362587,147.802338 145.561111,147.865753 
z"/>
<path fill="#FDD814" opacity="1.000000" stroke="none" 
	d="
M296.614166,147.780411 
	C295.883240,148.232117 294.680603,148.946579 293.476227,148.949524 
	C268.483795,149.010208 243.491165,148.993225 218.498596,148.968491 
	C217.856384,148.967850 217.214417,148.706985 216.289612,148.258102 
	C242.718460,147.869751 269.430054,147.790771 296.614166,147.780411 
z"/>
<path fill="#FDEF9E" opacity="1.000000" stroke="none" 
	d="
M305.967651,147.610443 
	C305.745789,147.898956 305.443573,147.815628 305.005493,147.435638 
	C305.173218,147.301315 305.512482,147.334534 305.967651,147.610443 
z"/>
<path fill="#FDD814" opacity="1.000000" stroke="none" 
	d="
M62.468636,149.446503 
	C62.526451,149.411819 62.410816,149.481186 62.468636,149.446503 
z"/>
<path fill="#FDD814" opacity="1.000000" stroke="none" 
	d="
M299.462463,149.445892 
	C299.520691,149.410568 299.404205,149.481232 299.462463,149.445892 
z"/>
</svg>